<svg xmlns="http://www.w3.org/2000/svg" width="23.378" height="34.004" viewBox="0 0 23.378 34.004">
  <g id="noun-car-seat-3512262" transform="translate(-157.501 -0.001)">
    <path id="Path_1172" data-name="Path 1172" d="M368.031,36.063h2.125v1.594a.531.531,0,0,0,1.063,0V36.063A1.064,1.064,0,0,0,370.157,35h-2.125a.531.531,0,0,0,0,1.063Z" transform="translate(-197.248 -32.874)"/>
    <path id="Path_1173" data-name="Path 1173" d="M179.285,26.567h-1.705a2.414,2.414,0,0,0,.391-1.642l-1.629-13.843a3,3,0,0,0-2.9-2.579h-1.063V7.439H174.5A1.6,1.6,0,0,0,176.1,5.845V3.189A3.191,3.191,0,0,0,172.909,0h-7.438a3.191,3.191,0,0,0-3.188,3.188V5.845a1.6,1.6,0,0,0,1.594,1.594H166V8.5h-1.063a3,3,0,0,0-2.9,2.579l-1.629,13.843a2.417,2.417,0,0,0,.391,1.642h-1.706a1.6,1.6,0,0,0-1.594,1.594v3.188a2.66,2.66,0,0,0,2.657,2.657h18.065a2.66,2.66,0,0,0,2.657-2.657V28.161a1.6,1.6,0,0,0-1.594-1.594Zm-4-15.36,1.629,13.843a1.319,1.319,0,0,1-1.349,1.517h-1.594V9.652a1.944,1.944,0,0,1,1.315,1.555Zm-2.377,15.36h-7.438v-17h7.438ZM163.345,5.845V3.189a2.128,2.128,0,0,1,2.125-2.125h7.438a2.128,2.128,0,0,1,2.125,2.125V5.845a.532.532,0,0,1-.531.531H163.877A.532.532,0,0,1,163.345,5.845Zm3.719,1.594h4.251V8.5h-4.251Zm-5.281,18.686a1.353,1.353,0,0,1-.318-1.075l1.629-13.843a1.944,1.944,0,0,1,1.315-1.555V26.567h-1.594a1.355,1.355,0,0,1-1.031-.441Zm16.439,6.817H160.158a1.6,1.6,0,0,1-1.594-1.594V28.161a.532.532,0,0,1,.531-.531h20.19a.532.532,0,0,1,.531.531v1.063H164.939a.531.531,0,0,0,0,1.063h14.877v1.063A1.6,1.6,0,0,1,178.222,32.943Z"/>
    <path id="Path_1174" data-name="Path 1174" d="M306.781,184.813h2.125a.531.531,0,0,0,0-1.063h-2.125a.531.531,0,0,0,0,1.063Z" transform="translate(-139.717 -172.591)"/>
    <path id="Path_1175" data-name="Path 1175" d="M306.781,219.813h3.188a.531.531,0,1,0,0-1.063h-3.188a.531.531,0,0,0,0,1.063Z" transform="translate(-139.717 -205.466)"/>
    <path id="Path_1176" data-name="Path 1176" d="M306.781,254.813h2.657a.531.531,0,0,0,0-1.063h-2.657a.531.531,0,0,0,0,1.063Z" transform="translate(-139.717 -238.341)"/>
    <path id="Path_1177" data-name="Path 1177" d="M376.405,289.009a.546.546,0,0,0-.154.377.531.531,0,1,0,.154-.377Z" transform="translate(-205.467 -271.32)"/>
    <path id="Path_1178" data-name="Path 1178" d="M376.405,184.009a.546.546,0,0,0-.154.377.531.531,0,1,0,.154-.377Z" transform="translate(-205.467 -172.696)"/>
    <path id="Path_1179" data-name="Path 1179" d="M306.781,289.813h2.125a.531.531,0,0,0,0-1.063h-2.125a.531.531,0,0,0,0,1.063Z" transform="translate(-139.717 -271.216)"/>
    <path id="Path_1180" data-name="Path 1180" d="M306.781,324.813h2.657a.531.531,0,0,0,0-1.063h-2.657a.531.531,0,0,0,0,1.063Z" transform="translate(-139.717 -304.09)"/>
    <path id="Path_1181" data-name="Path 1181" d="M311.032,358.75h-4.251a.531.531,0,0,0,0,1.063h4.251a.531.531,0,0,0,0-1.063Z" transform="translate(-139.717 -336.965)"/>
    <path id="Path_1182" data-name="Path 1182" d="M309.438,393.75h-2.657a.531.531,0,0,0,0,1.063h2.657a.531.531,0,0,0,0-1.063Z" transform="translate(-139.717 -369.84)"/>
    <path id="Path_1183" data-name="Path 1183" d="M236.405,481.509a.531.531,0,1,0,.754,0,.557.557,0,0,0-.754,0Z" transform="translate(-73.968 -452.131)"/>
    <path id="Path_1184" data-name="Path 1184" d="M333.031,36.166a.526.526,0,1,0-.377-.154.547.547,0,0,0,.377.154Z" transform="translate(-164.373 -32.977)"/>
  </g>
</svg>
