<svg xmlns="http://www.w3.org/2000/svg" width="23.098" height="31.394" viewBox="0 0 23.098 31.394">
  <g id="noun-furniture-3172132" transform="translate(-214.802 -96.254)">
    <path id="Path_1185" data-name="Path 1185" d="M236.727,124.142,227.1,121.2v-1.091h.366a1.383,1.383,0,0,0,1.375-1.375v-1.121h4.806a2.9,2.9,0,0,0,2.242-1.062l.927-1.114a4.7,4.7,0,0,0,.867-4.41l-3.02-11.593a4.59,4.59,0,0,0-4.358-3.184H222.4a4.6,4.6,0,0,0-4.373,3.229l-2.99,11.5h0a4.725,4.725,0,0,0,.86,4.485l.934,1.114a2.9,2.9,0,0,0,2.242,1.062h4.806v1.114h0a1.383,1.383,0,0,0,1.375,1.375h.351v1.1l-9.62,2.908a.748.748,0,0,0-.531.747v.979a.747.747,0,0,0,1.495,0v-.464l8.656-2.631V126.9a.747.747,0,1,0,1.495,0v-4.126l8.656,2.631v.426a.747.747,0,1,0,1.495,0v-.972a.748.748,0,0,0-.523-.718Zm-20.28-12.707,2.99-11.5h0a3.1,3.1,0,0,1,2.96-2.183h7.909a3.087,3.087,0,0,1,2.923,2.108l3.042,11.593a3.215,3.215,0,0,1-.576,3.035l-.269.314c-1.6-1.9-5.106-3.162-9.075-3.162s-7.475,1.263-9.075,3.162l-.262-.314h0a3.236,3.236,0,0,1-.568-3.08Zm2.242,4.665-.112-.037a1.4,1.4,0,0,1-.217-.1l-.06-.037c1.069-1.443,3.984-2.766,8.043-2.766s6.982,1.33,8.043,2.773h-.052a1.377,1.377,0,0,1-.232.1H234a1.448,1.448,0,0,1-.359.052H219.056a1.425,1.425,0,0,1-.359-.023Zm6.66,1.547h2v.994h-1.988Z" transform="translate(0)"/>
  </g>
</svg>
