<svg xmlns="http://www.w3.org/2000/svg" width="32.764" height="32.764" viewBox="0 0 32.764 32.764">
  <g id="noun-modular-kitchen-3873503" transform="translate(-70)">
    <path id="Path_1169" data-name="Path 1169" d="M183.728,8.191,180.75,5.212V0h-5.957V5.212l-2.979,2.979v3.723h11.914Zm-1.489,2.234H173.3V8.8L175.85,6.27l.432-.447V1.489h2.978V5.823l.432.447L182.239,8.8Z" transform="translate(-95.857)"/>
    <path id="Path_1170" data-name="Path 1170" d="M248.18,280h2.979v1.489H248.18Z" transform="translate(-167.755 -263.618)"/>
    <path id="Path_1171" data-name="Path 1171" d="M92.339,127.27v11.914H70v13.4h32.764V127.27Zm8.936,1.489v5.957H93.829v-5.957ZM71.49,151.1V140.674h5.957V151.1Zm7.446,0V140.674h5.957V151.1Zm7.446,0V140.674h5.957V151.1Zm7.446,0V136.205h7.446V151.1Z" transform="translate(0 -119.824)"/>
  </g>
</svg>
