<svg id="SIGN_UP_TO_STAY_UPDATED_" data-name="SIGN UP TO STAY UPDATED " xmlns="http://www.w3.org/2000/svg" width="24" height="23" viewBox="0 0 24 23">
  <path id="Path_1151" data-name="Path 1151" d="M8.75,17.612V22.25a.75.75,0,0,0,1.354.444L12.817,19Z" fill="#fff"/>
  <path id="Path_1152" data-name="Path 1152" d="M23.685.139A.75.75,0,0,0,22.9.085L.4,11.835a.75.75,0,0,0,.1,1.375l6.255,2.138L20.083,3.958,9.775,16.377,20.258,19.96A.767.767,0,0,0,20.5,20a.749.749,0,0,0,.742-.639l2.75-18.5a.751.751,0,0,0-.307-.722Z" fill="#fff"/>
</svg>
