<svg version="1.2" xmlns="http://www.w3.org/2000/svg" viewBox="0 0 2428 528" width="276" height="60"><style>.a{fill:#fff}</style><path fill-rule="evenodd" class="a" d="m1924.8 206.8h-329.6v122.9h329.6z"/><path fill-rule="evenodd" class="a" d="m2222.2 262.8v259.7h-120v-261.7c-74.1-17.7-136-66.9-171.1-132.3h-334.8c6.3-69.3 64.6-123.6 135.6-123.6l288.4 0.7c0 79.1 64.1 143.2 143.2 143.2 79.1 0 143.2-64.1 143.2-143.2h120.5c0 125.5-87.6 230.5-205 257.2zm-1127.3-40.7l303.1 300.3h-169l-307.3-296.1 229.1-220.7h167.6z"/><path fill-rule="evenodd" class="a" d="m1924.2 399.6l0.7 122.9h-403.7c-111.1 0-195.6-83.1-195.6-194.2l0.7-322.7h120.1v301.7c0 55.5 38.1 92.2 93.6 92.2zm429.6 68.9c0 26.2-21 45.3-45.6 45.3-24.9 0-45.9-19.1-45.9-45.3 0-25.9 21-45 45.9-45 24.6 0 45.7 19.1 45.6 45zm-9.1 0.1c0-21.4-16.1-37.5-36.5-37.5-20.7 0-36.8 16.1-36.8 37.5 0 21.7 16.1 37.7 36.8 37.7 20.4 0 36.6-16 36.5-37.7z"/><path fill-rule="evenodd" class="a" d="m2329.4 494.7h-8.8l-13.8-22.6h-9.1v22.6h-7.9v-52.1h19.8c12.3 0 18.4 4.5 18.4 14.8 0 9.3-5.9 13.4-13.5 14.3zm-22.4-29.3c6.7 0 12.7-0.5 12.7-8.5 0-6.4-5.8-7.6-11.3-7.6h-10.7v16.1zm-1389.8-459.8v516.8h-120.1v-192.8h-208.3c6.3-69.3 64.6-123.6 135.6-123.6h72.6v-77.5h-51.7c-50.3 0-169.2 24-226.5 201.4-29.3 113.8-132.5 197.8-255.4 197.8-145.6 0-263.7-118.1-263.7-263.7 0-145.6 118.1-263.7 263.7-263.7 98 0 183.5 53.5 229 132.8 33.6-43.3 127.3-127.5 243.2-127.5zm-511.5 258.4c0-79.1-64.1-143.2-143.2-143.2-79.1 0-143.2 64.1-143.2 143.2 0 79.1 64.1 143.2 143.2 143.2 79.1 0 143.2-64.1 143.2-143.2z"/></svg>